<svg xmlns="http://www.w3.org/2000/svg" xmlns:xlink="http://www.w3.org/1999/xlink" width="500" zoomAndPan="magnify" viewBox="0 0 375 374.999991" height="500" preserveAspectRatio="xMidYMid meet" version="1.0"><defs><g/><clipPath id="742dde1e2a"><path d="M 249.304688 227.300781 L 303.65625 227.300781 L 303.65625 281.652344 L 249.304688 281.652344 Z M 249.304688 227.300781 " clip-rule="nonzero"/></clipPath><clipPath id="08ec566a36"><path d="M 276.480469 227.300781 C 261.472656 227.300781 249.304688 239.464844 249.304688 254.476562 C 249.304688 269.484375 261.472656 281.652344 276.480469 281.652344 C 291.488281 281.652344 303.65625 269.484375 303.65625 254.476562 C 303.65625 239.464844 291.488281 227.300781 276.480469 227.300781 Z M 276.480469 227.300781 " clip-rule="nonzero"/></clipPath><clipPath id="beee2ce14e"><path d="M 30.285156 49.898438 L 127.4375 49.898438 L 127.4375 147.050781 L 30.285156 147.050781 Z M 30.285156 49.898438 " clip-rule="nonzero"/></clipPath><clipPath id="d294c1917a"><path d="M 78.863281 49.898438 C 52.035156 49.898438 30.285156 71.644531 30.285156 98.472656 C 30.285156 125.300781 52.035156 147.050781 78.863281 147.050781 C 105.691406 147.050781 127.4375 125.300781 127.4375 98.472656 C 127.4375 71.644531 105.691406 49.898438 78.863281 49.898438 Z M 78.863281 49.898438 " clip-rule="nonzero"/></clipPath><clipPath id="faa9230e9e"><path d="M 265 242.996094 L 287.960938 242.996094 L 287.960938 265.953125 L 265 265.953125 Z M 265 242.996094 " clip-rule="nonzero"/></clipPath><clipPath id="42ae3481b9"><path d="M 276.480469 242.996094 C 270.140625 242.996094 265 248.136719 265 254.476562 C 265 260.816406 270.140625 265.953125 276.480469 265.953125 C 282.820312 265.953125 287.960938 260.816406 287.960938 254.476562 C 287.960938 248.136719 282.820312 242.996094 276.480469 242.996094 Z M 276.480469 242.996094 " clip-rule="nonzero"/></clipPath></defs><g fill="#001529" fill-opacity="1"><g transform="translate(74.564103, 263.113968)"><g><path d="M 46.984375 -62.71875 L 46.984375 0 L 11.375 0 L 11.375 -156.328125 L 46.984375 -156.328125 L 46.984375 -93.984375 L 97.390625 -93.984375 L 97.390625 -156.328125 L 133.015625 -156.328125 L 133.015625 0 L 97.390625 0 L 97.390625 -62.71875 Z M 46.984375 -62.71875 "/></g></g></g><g fill="#001529" fill-opacity="1"><g transform="translate(160.398086, 263.113968)"><g><path d="M 11.375 -156.328125 L 67.265625 -156.328125 C 82.296875 -156.328125 94.546875 -152.316406 104.015625 -144.296875 C 113.492188 -136.273438 118.234375 -124.8125 118.234375 -109.90625 C 118.234375 -98.40625 115.359375 -88.769531 109.609375 -81 C 103.867188 -73.226562 96.070312 -67.765625 86.21875 -64.609375 L 140.03125 0 L 94.734375 0 L 46.984375 -61.765625 L 46.984375 0 L 11.375 0 Z M 46.984375 -86.96875 L 51.15625 -86.96875 C 54.445312 -86.96875 57.226562 -87.03125 59.5 -87.15625 C 61.769531 -87.289062 64.359375 -87.734375 67.265625 -88.484375 C 70.171875 -89.242188 72.507812 -90.316406 74.28125 -91.703125 C 76.050781 -93.097656 77.566406 -95.117188 78.828125 -97.765625 C 80.085938 -100.421875 80.71875 -103.644531 80.71875 -107.4375 C 80.71875 -111.226562 80.085938 -114.445312 78.828125 -117.09375 C 77.566406 -119.75 76.050781 -121.769531 74.28125 -123.15625 C 72.507812 -124.550781 70.171875 -125.625 67.265625 -126.375 C 64.359375 -127.132812 61.769531 -127.578125 59.5 -127.703125 C 57.226562 -127.835938 54.445312 -127.90625 51.15625 -127.90625 L 46.984375 -127.90625 Z M 46.984375 -86.96875 "/></g></g></g><g clip-path="url(#742dde1e2a)"><g clip-path="url(#08ec566a36)"><path fill="#ffffff" d="M 249.304688 227.300781 L 303.65625 227.300781 L 303.65625 281.652344 L 249.304688 281.652344 Z M 249.304688 227.300781 " fill-opacity="1" fill-rule="nonzero"/></g></g><g clip-path="url(#beee2ce14e)"><g clip-path="url(#d294c1917a)"><path fill="#ffffff" d="M 30.285156 49.898438 L 127.4375 49.898438 L 127.4375 147.050781 L 30.285156 147.050781 Z M 30.285156 49.898438 " fill-opacity="1" fill-rule="nonzero"/></g></g><g clip-path="url(#faa9230e9e)"><g clip-path="url(#42ae3481b9)"><path fill="#001529" d="M 265 242.996094 L 287.960938 242.996094 L 287.960938 265.953125 L 265 265.953125 Z M 265 242.996094 " fill-opacity="1" fill-rule="nonzero"/></g></g></svg>