<svg xmlns="http://www.w3.org/2000/svg" xmlns:xlink="http://www.w3.org/1999/xlink" width="500" zoomAndPan="magnify" viewBox="0 0 375 374.999991" height="500" preserveAspectRatio="xMidYMid meet" version="1.0"><defs><clipPath id="ffba97123c"><path d="M 147 0 L 357.859375 0 L 357.859375 365 L 147 365 Z M 147 0 " clip-rule="nonzero"/></clipPath><clipPath id="f6491a3d4c"><path d="M 17.359375 11 L 261 11 L 261 349 L 17.359375 349 Z M 17.359375 11 " clip-rule="nonzero"/></clipPath></defs><path fill="#001529" d="M 339.289062 55.066406 C 336.808594 41.140625 332.578125 36.152344 332.578125 36.152344 C 331.113281 27.441406 327.589844 26.234375 322.996094 27.011719 C 318.402344 27.785156 322.8125 33.917969 324.273438 42.628906 L 320.65625 70.5 C 318.601562 69.742188 316.464844 69.203125 314.285156 68.9375 C 303.417969 67.589844 290.789062 78.300781 283.96875 90.011719 C 283.785156 89.984375 283.601562 89.960938 283.421875 89.941406 C 279.671875 76.890625 270.019531 63.367188 259.132812 62.015625 C 256.957031 61.746094 254.746094 61.746094 252.5625 61.976562 L 255.808594 34.570312 C 259.359375 26.480469 265.128906 21.609375 260.859375 19.734375 C 256.589844 17.859375 252.878906 18.167969 249.332031 26.257812 C 249.332031 26.257812 244.011719 30.0625 238.203125 42.964844 C 233.332031 53.816406 229.703125 74.945312 229.703125 74.945312 C 229.214844 77.78125 229.042969 79.15625 229.167969 79.765625 C 228.679688 81.6875 228.46875 83.714844 228.632812 85.835938 C 229.351562 95.398438 230.429688 102.675781 232.042969 108.328125 C 233.425781 122.28125 237.152344 138.105469 235.476562 151.660156 C 232.683594 174.238281 218.148438 196.027344 211.078125 213.871094 C 210.484375 215 209.875 216.46875 209.175781 218.371094 C 200.867188 241.082031 187.191406 298.875 187.191406 298.875 C 186.589844 303.710938 201.957031 307.90625 206.628906 310.652344 C 206.628906 310.652344 221.289062 318.632812 255.191406 322.828125 C 292.226562 327.417969 304.421875 322.761719 304.421875 322.761719 C 309.074219 321.386719 329.859375 319.917969 330.460938 315.085938 C 330.460938 315.085938 328.171875 255.167969 323.300781 231.476562 C 323.300781 231.460938 323.296875 231.449219 323.296875 231.433594 C 320.796875 211.972656 308.492188 185.109375 311.484375 161.070312 C 312.984375 149.027344 320.171875 136.972656 326.109375 125.15625 C 330.226562 119.816406 333.953125 111.746094 338.03125 99.46875 C 338.75 97.320312 339.042969 95.179688 338.988281 93.070312 C 339.296875 92.601562 339.484375 91.238281 339.71875 88.15625 C 339.734375 88.160156 341.375 66.777344 339.289062 55.066406 Z M 339.289062 55.066406 " fill-opacity="1" fill-rule="nonzero"/><g clip-path="url(#ffba97123c)"><path stroke-linecap="butt" transform="matrix(3.40275, 0, 0, 3.40275, 17.35938, 0)" fill="none" stroke-linejoin="miter" d="M 94.608683 16.182913 C 93.879723 12.090405 92.636473 10.624449 92.636473 10.624449 C 92.205984 8.064479 91.170517 7.709757 89.820506 7.938203 C 88.470495 8.165501 89.766551 9.967811 90.195891 12.527781 L 89.132872 20.718537 C 88.529041 20.495831 87.901102 20.337412 87.260536 20.25935 C 84.066887 19.863301 80.355505 23.011031 78.351151 26.45264 C 78.297197 26.444605 78.243242 26.437717 78.190436 26.431977 C 77.088386 22.596614 74.251756 18.622347 71.052367 18.225149 C 70.412949 18.14594 69.763198 18.14594 69.121484 18.21367 L 70.075446 10.159522 C 71.118949 7.782079 72.814499 6.350562 71.559769 5.799537 C 70.30504 5.248512 69.214469 5.339202 68.172114 7.716645 C 68.172114 7.716645 66.608581 8.834766 64.901551 12.626507 C 63.470034 15.815563 62.403572 22.024926 62.403572 22.024926 C 62.260076 22.858351 62.209565 23.262436 62.2463 23.441519 C 62.102804 24.006319 62.040814 24.602115 62.089028 25.225462 C 62.300254 28.035689 62.617094 30.174355 63.091205 31.835465 C 63.497586 35.936009 64.592748 40.58643 64.100269 44.569881 C 63.279472 51.205139 59.007881 57.608508 56.930057 62.852429 C 56.755566 63.184192 56.576483 63.615828 56.370997 64.174889 C 53.929267 70.849178 49.910229 87.833373 49.910229 87.833373 C 49.733442 89.254558 54.249551 90.487477 55.622521 91.294499 C 55.622521 91.294499 59.930847 93.639799 69.894067 94.872717 C 80.777957 96.22158 84.361915 94.853201 84.361915 94.853201 C 85.729146 94.449116 91.837486 94.01748 92.014274 92.597443 C 92.014274 92.597443 91.341564 74.988753 89.910047 68.026323 C 89.910047 68.021731 89.908899 68.018287 89.908899 68.013696 C 89.174199 62.294516 85.558098 54.399936 86.437442 47.335337 C 86.878262 43.79615 88.990524 40.253519 90.735437 36.780914 C 91.945396 35.211641 93.040558 32.839938 94.239037 29.231872 C 94.450263 28.60049 94.536361 27.971403 94.520289 27.3515 C 94.610979 27.213744 94.666081 26.813103 94.734959 25.907355 C 94.739551 25.908503 95.221698 19.624523 94.608683 16.182913 Z M 94.608683 16.182913 " stroke="#000000" stroke-width="0.825" stroke-opacity="1" stroke-miterlimit="10"/></g><path fill="#001529" d="M 193.703125 220.253906 C 201.339844 200.988281 217.019531 177.472656 220.042969 153.101562 C 221.859375 138.460938 217.835938 121.375 216.335938 106.3125 C 214.601562 100.214844 213.421875 92.359375 212.660156 82.035156 C 212.484375 79.742188 212.710938 77.554688 213.242188 75.480469 C 213.105469 74.824219 213.285156 73.335938 213.8125 70.277344 C 213.8125 70.277344 214.257812 67.699219 215.039062 63.871094 C 211.859375 63.09375 208.660156 62.457031 205.714844 62.023438 C 205.667969 61.863281 205.628906 61.710938 205.554688 61.597656 L 204.578125 53.683594 C 204.410156 52.304688 203.152344 51.324219 201.789062 51.492188 C 201.789062 51.492188 189.070312 61.628906 161.566406 64.320312 C 131.78125 67.238281 118.960938 61.597656 118.960938 61.597656 C 117.578125 61.761719 116.601562 63.019531 116.765625 64.402344 L 117.730469 72.304688 C 117.695312 72.429688 117.675781 72.585938 117.699219 72.777344 C 110.0625 75.910156 101.054688 80.835938 95.652344 85.839844 C 95.027344 86.273438 94.421875 86.761719 93.878906 87.355469 L 45.234375 134.257812 C 44.144531 133.265625 42.5 133.28125 41.5625 134.3125 L 31.863281 144.972656 C 30.929688 146 31.058594 147.640625 32.152344 148.640625 L 80.464844 192.597656 C 81.554688 193.59375 83.203125 193.574219 84.136719 192.542969 L 93.832031 181.886719 C 94.492188 181.15625 94.597656 180.121094 94.230469 179.230469 L 100.285156 171.582031 L 116.027344 300.726562 C 117.210938 310.390625 125.074219 309.761719 134.734375 308.585938 L 169.773438 304.316406 C 174.015625 286.863281 184.613281 244.332031 191.652344 225.105469 C 192.402344 223.054688 193.066406 221.480469 193.703125 220.253906 Z M 87.722656 181.09375 L 82.660156 186.65625 C 82.171875 187.195312 81.015625 186.9375 80.082031 186.089844 L 38.824219 148.539062 C 37.890625 147.691406 37.523438 146.554688 38.015625 146.027344 L 43.085938 140.464844 C 43.574219 139.929688 44.722656 140.191406 45.660156 141.039062 L 86.921875 178.582031 C 87.84375 179.425781 88.207031 180.558594 87.722656 181.09375 Z M 121.78125 72.375 L 121.269531 68.136719 C 121.199219 67.574219 122.144531 67 123.382812 66.84375 C 123.382812 66.84375 134.824219 71.429688 161.519531 68.464844 C 186.171875 65.726562 197.71875 57.777344 197.71875 57.777344 C 198.949219 57.632812 200.015625 57.960938 200.082031 58.527344 L 200.601562 62.761719 C 201.757812 63.640625 196.285156 70.824219 162.121094 74.984375 C 125.789062 79.402344 121.09375 73.195312 121.78125 72.375 Z M 121.78125 72.375 " fill-opacity="1" fill-rule="nonzero"/><g clip-path="url(#f6491a3d4c)"><path stroke-linecap="butt" transform="matrix(3.40275, 0, 0, 3.40275, 17.35938, 0)" fill="none" stroke-linejoin="miter" d="M 51.823893 64.728209 C 54.068172 59.066428 58.676118 52.155657 59.564645 44.993481 C 60.098451 40.690895 58.916043 35.66968 58.475223 31.243113 C 57.965525 29.451134 57.618839 27.14257 57.394985 24.108489 C 57.343326 23.434631 57.409908 22.791769 57.566032 22.182197 C 57.525853 21.989338 57.57866 21.551962 57.733635 20.653103 C 57.733635 20.653103 57.864504 19.895444 58.094098 18.770435 C 57.159651 18.541989 56.219465 18.35487 55.353896 18.227445 C 55.340121 18.180379 55.328641 18.135608 55.30683 18.102317 L 55.019838 15.776532 C 54.970475 15.3713 54.600829 15.083159 54.200188 15.132522 C 54.200188 15.132522 50.462402 18.111501 42.379555 18.902451 C 33.626295 19.759983 29.858662 18.102317 29.858662 18.102317 C 29.452281 18.150532 29.165289 18.520177 29.213504 18.926558 L 29.497052 21.248899 C 29.48672 21.285634 29.48098 21.331552 29.487868 21.387803 C 27.243589 22.308474 24.596374 23.756062 23.008733 25.22661 C 22.825058 25.354034 22.647123 25.497531 22.487556 25.672022 L 8.191903 39.455681 C 7.871619 39.164097 7.388325 39.168689 7.112812 39.471752 L 4.262406 42.604559 C 3.988042 42.906474 4.025925 43.388621 4.347356 43.682501 L 18.545431 56.600592 C 18.865715 56.893324 19.350157 56.887584 19.624522 56.58452 L 22.47378 53.452862 C 22.667787 53.238192 22.698782 52.93398 22.590873 52.672243 L 24.370224 50.424521 L 28.996537 88.37751 C 29.344372 91.217585 31.655233 91.032762 34.494159 90.687223 L 44.791437 89.432494 C 46.038131 84.30337 49.15257 71.804288 51.22121 66.153986 C 51.44162 65.551303 51.636774 65.088672 51.823893 64.728209 Z M 20.678357 53.219824 L 19.19059 54.854531 C 19.047094 55.012951 18.707295 54.937185 18.43293 54.688076 L 6.308086 43.652654 C 6.033722 43.403545 5.925813 43.069486 6.070457 42.91451 L 7.56052 41.279803 C 7.704016 41.122531 8.041519 41.199445 8.317031 41.448554 L 20.443023 52.48168 C 20.713944 52.729642 20.820705 53.062552 20.678357 53.219824 Z M 30.687495 21.269562 L 30.537111 20.024016 C 30.516448 19.858709 30.794256 19.689957 31.158162 19.644039 C 31.158162 19.644039 34.520562 20.991754 42.36578 20.120446 C 49.61061 19.31572 53.004005 16.979604 53.004005 16.979604 C 53.365615 16.937129 53.67901 17.033558 53.698526 17.200014 L 53.851206 18.444411 C 54.191004 18.702704 52.5827 20.813819 42.542567 22.036405 C 31.865311 23.334758 30.485453 21.510636 30.687495 21.269562 Z M 30.687495 21.269562 " stroke="#000000" stroke-width="0.825" stroke-opacity="1" stroke-miterlimit="10"/></g></svg>