<svg xmlns="http://www.w3.org/2000/svg" xmlns:xlink="http://www.w3.org/1999/xlink" width="500" zoomAndPan="magnify" viewBox="0 0 375 374.999991" height="500" preserveAspectRatio="xMidYMid meet" version="1.0"><defs><g/><clipPath id="93ff20a82a"><path d="M 234.460938 218.191406 L 275.761719 218.191406 L 275.761719 259.492188 L 234.460938 259.492188 Z M 234.460938 218.191406 " clip-rule="nonzero"/></clipPath><clipPath id="7e082d540d"><path d="M 255.113281 218.191406 C 243.707031 218.191406 234.460938 227.4375 234.460938 238.84375 C 234.460938 250.246094 243.707031 259.492188 255.113281 259.492188 C 266.515625 259.492188 275.761719 250.246094 275.761719 238.84375 C 275.761719 227.4375 266.515625 218.191406 255.113281 218.191406 Z M 255.113281 218.191406 " clip-rule="nonzero"/></clipPath><clipPath id="e92a0b8661"><path d="M 68.042969 83.394531 L 141.863281 83.394531 L 141.863281 157.214844 L 68.042969 157.214844 Z M 68.042969 83.394531 " clip-rule="nonzero"/></clipPath><clipPath id="2f030eefcd"><path d="M 104.953125 83.394531 C 84.566406 83.394531 68.042969 99.917969 68.042969 120.304688 C 68.042969 140.6875 84.566406 157.214844 104.953125 157.214844 C 125.335938 157.214844 141.863281 140.6875 141.863281 120.304688 C 141.863281 99.917969 125.335938 83.394531 104.953125 83.394531 Z M 104.953125 83.394531 " clip-rule="nonzero"/></clipPath><clipPath id="ce17ec851b"><path d="M 246.390625 230.121094 L 263.835938 230.121094 L 263.835938 247.5625 L 246.390625 247.5625 Z M 246.390625 230.121094 " clip-rule="nonzero"/></clipPath><clipPath id="9869b17fdb"><path d="M 255.113281 230.121094 C 250.292969 230.121094 246.390625 234.023438 246.390625 238.84375 C 246.390625 243.660156 250.292969 247.5625 255.113281 247.5625 C 259.929688 247.5625 263.835938 243.660156 263.835938 238.84375 C 263.835938 234.023438 259.929688 230.121094 255.113281 230.121094 Z M 255.113281 230.121094 " clip-rule="nonzero"/></clipPath></defs><g fill="#ffffff" fill-opacity="1"><g transform="translate(101.59919, 239.305055)"><g><path d="M 35.703125 -47.640625 L 35.703125 0 L 8.640625 0 L 8.640625 -118.75 L 35.703125 -118.75 L 35.703125 -71.390625 L 73.984375 -71.390625 L 73.984375 -118.75 L 101.046875 -118.75 L 101.046875 0 L 73.984375 0 L 73.984375 -47.640625 Z M 35.703125 -47.640625 "/></g></g></g><g fill="#ffffff" fill-opacity="1"><g transform="translate(166.83878, 239.305055)"><g><path d="M 8.640625 -118.75 L 51.09375 -118.75 C 62.507812 -118.75 71.816406 -115.703125 79.015625 -109.609375 C 86.210938 -103.515625 89.8125 -94.804688 89.8125 -83.484375 C 89.8125 -74.753906 87.628906 -67.4375 83.265625 -61.53125 C 78.898438 -55.632812 72.972656 -51.484375 65.484375 -49.078125 L 106.375 0 L 71.96875 0 L 35.703125 -46.921875 L 35.703125 0 L 8.640625 0 Z M 35.703125 -66.0625 L 38.859375 -66.0625 C 41.359375 -66.0625 43.46875 -66.109375 45.1875 -66.203125 C 46.914062 -66.304688 48.882812 -66.644531 51.09375 -67.21875 C 53.300781 -67.789062 55.078125 -68.601562 56.421875 -69.65625 C 57.765625 -70.71875 58.914062 -72.253906 59.875 -74.265625 C 60.832031 -76.285156 61.3125 -78.734375 61.3125 -81.609375 C 61.3125 -84.492188 60.832031 -86.941406 59.875 -88.953125 C 58.914062 -90.960938 57.765625 -92.492188 56.421875 -93.546875 C 55.078125 -94.609375 53.300781 -95.425781 51.09375 -96 C 48.882812 -96.582031 46.914062 -96.921875 45.1875 -97.015625 C 43.46875 -97.109375 41.359375 -97.15625 38.859375 -97.15625 L 35.703125 -97.15625 Z M 35.703125 -66.0625 "/></g></g></g><g clip-path="url(#93ff20a82a)"><g clip-path="url(#7e082d540d)"><path fill="#001628" d="M 234.460938 218.191406 L 275.761719 218.191406 L 275.761719 259.492188 L 234.460938 259.492188 Z M 234.460938 218.191406 " fill-opacity="1" fill-rule="nonzero"/></g></g><g clip-path="url(#e92a0b8661)"><g clip-path="url(#2f030eefcd)"><path fill="#001628" d="M 68.042969 83.394531 L 141.863281 83.394531 L 141.863281 157.214844 L 68.042969 157.214844 Z M 68.042969 83.394531 " fill-opacity="1" fill-rule="nonzero"/></g></g><g clip-path="url(#ce17ec851b)"><g clip-path="url(#9869b17fdb)"><path fill="#ffffff" d="M 246.390625 230.121094 L 263.835938 230.121094 L 263.835938 247.5625 L 246.390625 247.5625 Z M 246.390625 230.121094 " fill-opacity="1" fill-rule="nonzero"/></g></g></svg>